<svg preserveAspectRatio="xMidYMid meet" data-bbox="214.382 317.17 588.617 328.103" viewBox="214.382 317.17 588.617 328.103" height="100%" width="100%" xmlns="http://www.w3.org/2000/svg" data-type="color" role="presentation" aria-hidden="true" aria-label="">
    <g>
        <path d="M524.9 341.646c-2.141-9.835-8.509-18.623-16.78-24.476-8.268 5.854-14.64 14.641-16.777 24.476-3.08 14.148 3.55 26.09 15.396 30.266-1.189-4.581-1.759-12.339-1.37-21.156.355-7.871 1.397-14.906 2.752-19.589 1.358 4.684 2.402 11.719 2.749 19.589.392 8.817-.178 16.575-1.367 21.156 11.842-4.176 18.475-16.117 15.397-30.266" fill="#FEDEB8" data-color="1"></path>
        <path d="M577.483 497.709c10.385-13.393 23.028-17.156 23.028-17.156-10.231-7.973-25.633-7.871-25.633-7.871 19.791-14.465 50.997 14.458 50.997 14.458s-21.314-3.806-41.103 21.312c-19.791 25.117-51.756 7.614-51.756 7.614 19.949 5.261 34.083-4.959 44.467-18.357" fill="#98A869" data-color="2"></path>
        <path d="M599.671 460.822c-10.607-5.861-26.936-18.377-40.708-44-22.504-41.882-62.534-55.187-93.15-15.004-17.575 23.067-27.445 46.114-52.038 59.437q.11.185.223.369c.108-.051.226-.096.331-.147 26.879-10.05 36.273-29.46 53.948-48.89 28.8-31.664 66.455-21.182 87.628 11.821 15.503 24.169 34.445 33.533 43.496 36.822q.134-.207.27-.408" fill="#FEDEB8" data-color="1"></path>
        <path d="M533.15 520.604c-2.557-.994-4.535-1.412-4.535-1.412 11.93 4.417 15.064 14.582-1.261 17.951-15.456 3.188-18.337 8.843-18.464 9.108-.126-.266-3.002-5.92-18.457-9.108-16.328-3.369-13.194-13.534-1.265-17.951 0 0-1.975.418-4.531 1.412-3.646.934-17.71 5.227-18.183 16.114-.545 12.508 35.325 8.169 42.43 20.113v.024l.006-.013c.003 0 .01.007.01.013v-.024c7.105-11.944 42.972-7.605 42.43-20.113-.473-10.881-14.524-15.18-18.18-16.114" fill="#FEDEB8" data-color="1"></path>
        <path d="m456.991 512.61-.118-36.809s40.164 10.267 67.082 55.392c-10.584-48.949-51.731-62.654-55.562-63.827l-21.438-7.982-.166-.102h-2.255s2.102 6.196 2.102 13.659v39.588c-.051 1.24-.81 2.396-2.078 3.384 2.385 1.204 4.634 2.638 6.685 4.333h13.197a35 35 0 0 1 3.785-1.237c-6.278-.617-11.026-3.235-11.234-6.399" fill="#98A869" data-color="2"></path>
        <path d="m535.077 457.352.033 1.095h.773c7.648 0 13.869 2.91 14.104 6.542l.117 31.323c-.301-.078-25.285-6.614-48.976-31.515 4.164 5.754 6.666 12.757 6.666 20.273 0 .259-.033.506-.039.765 14.013 13.378 28.641 18.24 30.851 18.915l.048.018-.066.048 21.438 7.982.162.1h2.259s-.013-.024-.024-.063h.042s-2.102-6.196-2.102-13.661v-16.406c-.009 0-.012-.003-.021-.003V465.07c.151-3.67 6.398-6.624 14.104-6.624h.774l.029-1.095h-40.172z" fill="#98A869" data-color="2"></path>
        <path d="M538.654 504.767s-80.275-27.068-34.223-97.203c0 0 34.918 29.499 13.242 61.704 0 0 5.721-26.787-11.438-42.742 0 0-14.143 39.355 18.698 58.206" fill="#98A869" data-color="2"></path>
        <path d="M436.258 497.709c-10.388-13.393-23.025-17.156-23.025-17.156 10.231-7.973 25.626-7.871 25.626-7.871-19.791-14.465-50.997 14.458-50.997 14.458s21.312-3.806 41.103 21.312c19.794 25.117 51.759 7.614 51.759 7.614-19.948 5.261-34.081-4.959-44.466-18.357" fill="#98A869" data-color="2"></path>
        <path d="M288.499 568.357h-1.704c-2.983 0-5.37 2.136-5.53 4.992v43.913c0 7.008 1.09 11.67 1.09 11.67h-.9l-46.201-40.641.022 33.215h.002c.086 2.928 2.503 5.137 5.537 5.137h1.672l.005 1.005h-28.11l.006-1.005h1.64c3.034 0 5.513-2.209 5.538-5.137v-44.16c0-6.814-1.095-11.377-1.095-11.377h.936l.026.028 46.11 40.53-.047-33.034h-.005c-.024-2.929-2.44-5.137-5.474-5.137h-1.703l-.006-1.005h28.197z" fill="#98A869" data-color="2"></path>
        <path d="M405.259 567.353v1.005h-.755c-2.966 0-6.061 1.529-7.527 4.674l-14.873 45.594s-1.913 5.661-1.591 10.105h-.896l-19.641-39.561-13.567 29.455s-2.255 5.278-2.321 10.105h-.896L321.8 573.475c-1.523-3.444-4.532-5.117-7.636-5.117h-.753v-1.005h28.168v1.002h-.819c-2.183 0-4.564 1.765-3.184 5.518h-.048l10.365 27.381 15.907-35.307h.819l.004.021.003-.01 17.608 35.469 8.158-27.575h-.052c1.062-3.752-.919-5.496-3.229-5.496h-.756v-1.002z" fill="#98A869" data-color="2"></path>
        <path d="m457.725 609.172-3.899 18.478h-47.261l.006-1.005h1.204c2.958 0 5.376-2.264 5.441-5.256v-47.777c-.042-3.014-2.469-5.252-5.441-5.252h-1.204l-.007-1.005h35.355c3.771-.018 8.849-.908 10.438-1.539v16.028l-1.039-.005v-.936c0-5.79-3.323-9.422-9.131-9.51h-14.481v24.362h11.426c4.728-.086 7.678-3.446 7.678-7.945v-.646l1.039-.004v21.269l-1.039-.004v-.71c0-4.457-2.895-7.796-7.543-7.942h-11.56v23.835h12.103c8.492-.084 14.314-5.55 16.946-14.438z" fill="#98A869" data-color="2"></path>
        <path d="m514.036 609.169-3.933 18.479h-47.26l.006-1.005h1.204c2.958 0 5.376-2.265 5.441-5.257v-47.697c-.022-3.032-2.527-5.339-5.511-5.339h-1.136l-.005-1.005h27.859l-.006 1.005h-1.135c-3.049 0-5.488 2.305-5.577 5.335v49.923h12.103c8.491-.085 14.28-5.551 16.912-14.44z" fill="#98A869" data-color="2"></path>
        <path d="m568.305 609.169-3.933 18.479h-47.261l.006-1.005h1.204c2.958 0 5.376-2.265 5.44-5.257v-47.697c-.021-3.032-2.526-5.339-5.511-5.339h-1.136l-.005-1.005h27.859l-.006 1.005h-1.135c-3.049 0-5.488 2.305-5.577 5.335v49.923h12.104c8.491-.085 14.28-5.551 16.912-14.44z" fill="#98A869" data-color="2"></path>
        <path d="M645.057 568.357h-1.704c-2.983 0-5.37 2.136-5.53 4.992v43.913c0 7.008 1.091 11.67 1.091 11.67h-.9l-46.2-40.641.021 33.215h.002c.087 2.928 2.504 5.137 5.538 5.137h1.672l.005 1.005h-28.11l.006-1.005h1.641c3.033 0 5.513-2.209 5.537-5.137v-44.16c0-6.814-1.095-11.377-1.095-11.377h.936l.026.028 46.11 40.53-.048-33.034h-.005c-.024-2.929-2.44-5.137-5.474-5.137h-1.704l-.006-1.005h28.197z" fill="#98A869" data-color="2"></path>
        <path d="m701.727 609.172-3.898 18.478h-47.262l.006-1.005h1.204c2.958 0 5.376-2.264 5.441-5.256v-47.777c-.042-3.014-2.469-5.252-5.441-5.252h-1.204l-.007-1.005h35.354c3.771-.018 8.85-.908 10.438-1.539v16.028l-1.039-.005v-.936c0-5.79-3.323-9.422-9.131-9.51h-14.481v24.362h11.427c4.727-.086 7.678-3.446 7.678-7.945v-.646l1.039-.004v21.269l-1.039-.004v-.71c0-4.457-2.895-7.796-7.543-7.942h-11.561v23.835h12.103c8.492-.084 14.314-5.55 16.946-14.438z" fill="#98A869" data-color="2"></path>
        <path d="M751.203 610.739c-.619 11.368-9.641 18.193-23.617 18.193-8.662 0-15.636-2.222-18.528-5.346-1.544-3.834-.167-11.503 2.261-15.3h.786c-.577 9.097 5.868 16.7 16.606 16.654 7.833-.06 11.631-4.197 11.631-9.118 0-3.466-2.143-6.271-7.508-9.04l-14.313-9.058c-6.702-3.49-9.647-9.558-8.891-16.438.852-9.577 7.897-15.217 18.129-15.217 3.359 0 8.893.4 13.065.919h5.452l-.201 1.733h-.007l-1.199 11.443h-.854c0-6.099-4.494-10.091-12.492-10.091-6.451 0-10.743 3.248-10.993 7.82-.285 3.734 2.653 5.916 6.513 7.988l15.891 9.768c5.294 2.756 8.722 7.928 8.269 15.09" fill="#98A869" data-color="2"></path>
        <path d="M802.959 610.739c-.619 11.368-9.641 18.193-23.617 18.193-8.662 0-15.636-2.222-18.528-5.346-1.544-3.834-.167-11.503 2.261-15.3h.786c-.577 9.097 5.868 16.7 16.606 16.654 7.833-.06 11.631-4.197 11.631-9.118 0-3.466-2.143-6.271-7.508-9.04l-14.313-9.058c-6.702-3.49-9.647-9.558-8.891-16.438.852-9.577 7.897-15.217 18.129-15.217 3.359 0 8.893.4 13.065.919h5.452l-.201 1.733h-.007l-1.199 11.443h-.854c0-6.099-4.494-10.091-12.492-10.091-6.451 0-10.743 3.248-10.993 7.82-.285 3.734 2.653 5.916 6.513 7.988l15.891 9.768c5.293 2.756 8.722 7.928 8.269 15.09" fill="#98A869" data-color="2"></path>
        <path fill="#FEDEB8" d="M727.769 642.397v2.876H288.323v-2.876z" data-color="1"></path>
    </g>
</svg>